<svg width="92" height="26" viewBox="0 0 92 26" fill="none" xmlns="http://www.w3.org/2000/svg">
<path fill-rule="evenodd" clip-rule="evenodd" d="M0 4.48276C0 2.007 2.00388 0 4.4758 0H21.4838C23.9558 0 25.9596 2.007 25.9596 4.48276V18.9705C25.9596 21.5319 22.7235 22.6435 21.154 20.6213L16.2472 14.2994V21.9655C16.2472 24.1937 14.4437 26 12.2189 26H4.4758C2.00388 26 0 23.993 0 21.5172V4.48276ZM4.4758 3.58621C3.98142 3.58621 3.58064 3.98761 3.58064 4.48276V21.5172C3.58064 22.0124 3.98142 22.4138 4.4758 22.4138H12.3532C12.6004 22.4138 12.6665 22.2131 12.6665 21.9655V11.6853C12.6665 9.12403 15.9027 8.0124 17.4722 10.0346L22.379 16.3564V4.48276C22.379 3.98761 22.4258 3.58621 21.9314 3.58621H4.4758Z" fill="#00E0D9"/>
<path fill-rule="evenodd" clip-rule="evenodd" d="M0 4.48276C0 2.007 2.00388 0 4.4758 0H21.4838C23.9558 0 25.9596 2.007 25.9596 4.48276V18.9705C25.9596 21.5319 22.7235 22.6435 21.154 20.6213L16.2472 14.2994V21.9655C16.2472 24.1937 14.4437 26 12.2189 26H4.4758C2.00388 26 0 23.993 0 21.5172V4.48276ZM4.4758 3.58621C3.98142 3.58621 3.58064 3.98761 3.58064 4.48276V21.5172C3.58064 22.0124 3.98142 22.4138 4.4758 22.4138H12.3532C12.6004 22.4138 12.6665 22.2131 12.6665 21.9655V11.6853C12.6665 9.12403 15.9027 8.0124 17.4722 10.0346L22.379 16.3564V4.48276C22.379 3.98761 22.4258 3.58621 21.9314 3.58621H4.4758Z" fill="url(#paint0_linear_4292_28747)"/>
<path fill-rule="evenodd" clip-rule="evenodd" d="M0 4.48276C0 2.007 2.00388 0 4.4758 0H21.4838C23.9558 0 25.9596 2.007 25.9596 4.48276V18.9705C25.9596 21.5319 22.7235 22.6435 21.154 20.6213L16.2472 14.2994V21.9655C16.2472 24.1937 14.4437 26 12.2189 26H4.4758C2.00388 26 0 23.993 0 21.5172V4.48276ZM4.4758 3.58621C3.98142 3.58621 3.58064 3.98761 3.58064 4.48276V21.5172C3.58064 22.0124 3.98142 22.4138 4.4758 22.4138H12.3532C12.6004 22.4138 12.6665 22.2131 12.6665 21.9655V11.6853C12.6665 9.12403 15.9027 8.0124 17.4722 10.0346L22.379 16.3564V4.48276C22.379 3.98761 22.4258 3.58621 21.9314 3.58621H4.4758Z" fill="url(#paint1_linear_4292_28747)" fill-opacity="0.4"/>
<path d="M21.4838 0C23.9557 0 25.9596 2.007 25.9596 4.48276V18.9705C25.9596 21.5319 22.7234 22.6435 21.1539 20.6213L16.2471 14.2994V21.9655C16.2471 24.1937 14.4436 26 12.2189 26C12.4661 26 12.6665 25.7993 12.6665 25.5517V11.6853C12.6665 9.12403 15.9026 8.0124 17.4721 10.0346L22.3789 16.3564V0.896552C22.3789 0.4014 21.9782 0 21.4838 0Z" fill="#63F655"/>
<path d="M43.7608 7.65503V14.4555L37.1772 7.65503H33.7505V18.7773H36.8758V11.4684L44.0464 18.7773H46.8861V7.65503H43.7608Z" fill="#1A1A1A"/>
<path d="M52.6795 16.2986V14.3284H59.6756V11.9609H52.6795V10.1337H61.1669V7.65503H49.4908V18.7773H61.3414V16.2986H52.6795Z" fill="#1A1A1A"/>
<path d="M69.6462 19.1427C74.0406 19.1427 76.8961 16.9818 76.8961 13.2161C76.8961 9.45047 74.0406 7.28958 69.6462 7.28958C65.2518 7.28958 62.4121 9.45047 62.4121 13.2161C62.4121 16.9818 65.2518 19.1427 69.6462 19.1427ZM69.6462 16.5051C67.2031 16.5051 65.696 15.3135 65.696 13.2161C65.696 11.1188 67.219 9.92714 69.6462 9.92714C72.0893 9.92714 73.5964 11.1188 73.5964 13.2161C73.5964 15.3135 72.0893 16.5051 69.6462 16.5051Z" fill="#1A1A1A"/>
<path d="M88.8748 7.65503V14.4555L82.2911 7.65503H78.8644V18.7773H81.9897V11.4684L89.1603 18.7773H92V7.65503H88.8748Z" fill="#1A1A1A"/>
<defs>
<linearGradient id="paint0_linear_4292_28747" x1="25.9597" y1="26" x2="3.09307" y2="0.0352383" gradientUnits="userSpaceOnUse">
<stop stop-color="#62F755"/>
<stop offset="1" stop-color="#8FF986" stop-opacity="0"/>
</linearGradient>
<linearGradient id="paint1_linear_4292_28747" x1="25.9596" y1="26" x2="10.5342" y2="20.0093" gradientUnits="userSpaceOnUse">
<stop stop-opacity="0.9"/>
<stop offset="1" stop-color="#1A1A1A" stop-opacity="0"/>
</linearGradient>
</defs>
</svg>
